# xmcd CD database file
#
# Track frame offsets:
#	150
#	5991
#	25888
#	47882
#	68323
#	87994
#	92343
#	112355
#	130202
#	149587
#	154727
#	174964
#	194396
#	217260
#	219448
#	237138
#	257547
#
# Disc length: 3498 seconds
#
# Revision: 6
# Processed by: cddbd v1.5.1PL0 Copyright (c) Steve Scherf et al.
# Submitted via: CDex 1.51
#
DISCID=f30da811
DTITLE=브라운 아이드 소울(Brown Eyed Soul) - Soul Free
DYEAR=2003
DGENRE=R&B
TTITLE0=Intro (북천이 맑다커늘)
TTITLE1=Brown Eyed Girl
TTITLE2=My Everything
TTITLE3=정말 사랑했을까
TTITLE4=해주길
TTITLE5=2003.7.14 AM 2:43
TTITLE6=바보
TTITLE7=Candy (What You Won't Do For Love)
TTITLE8=Blue Day
TTITLE9=Interlude
TTITLE10=술(C2H5OH)
TTITLE11=Go
TTITLE12=시계
TTITLE13=City Life
TTITLE14=Brown City
TTITLE15=아름다운 날들
TTITLE16=Outro
EXTD=YEAR: 2003
EXTT0=
EXTT1=
EXTT2=
EXTT3=
EXTT4=
EXTT5=
EXTT6=
EXTT7=
EXTT8=
EXTT9=
EXTT10=
EXTT11=
EXTT12=
EXTT13=
EXTT14=
EXTT15=
EXTT16=
PLAYORDER=
